<svg xmlns="http://www.w3.org/2000/svg" width="54.76" height="42.14" viewBox="0 0 54.76 42.14">
  <path id="Path_134" data-name="Path 134" d="M1250.09,216.955v-2.791a1.631,1.631,0,0,0-.11-.69,1.689,1.689,0,0,0-.37-.589,1.685,1.685,0,0,0-1.29-.488,1.767,1.767,0,0,0-.9.182,1.73,1.73,0,0,0-.68.609,1.625,1.625,0,0,0-.63-.6,1.7,1.7,0,0,0-.86-.193,1.492,1.492,0,0,0-1.31.66v-.548h-.98v4.446h.99v-2.447a1,1,0,0,1,.04-.453.915.915,0,0,1,.23-.394,1.025,1.025,0,0,1,.37-.259,1.114,1.114,0,0,1,.46-.075c.65,0,.97.419.97,1.172v2.474h.99v-2.465a1.149,1.149,0,0,1,.04-.452,1.041,1.041,0,0,1,.61-.652,1.069,1.069,0,0,1,.45-.077c.67,0,.99.419.99,1.172v2.474Zm14.6-4.446h-1.61V211.16h-.99v1.349h-.89v.883h.91v2.047c0,1.032.41,1.646,1.56,1.646a2.334,2.334,0,0,0,1.23-.344l-.29-.828a1.807,1.807,0,0,1-.86.251c-.47,0-.65-.3-.65-.744v-2.028h1.6Zm8.34-.112a1.322,1.322,0,0,0-1.19.651v-.539h-.97v4.446h.98v-2.493c0-.735.32-1.144.94-1.144a1.592,1.592,0,0,1,.61.111l.3-.93a2.052,2.052,0,0,0-.69-.121Zm-12.61.465a3.374,3.374,0,0,0-1.83-.465c-1.14,0-1.88.539-1.88,1.423,0,.726.54,1.172,1.55,1.312l.47.065c.54.074.79.214.79.465,0,.344-.36.539-1.03.539a2.4,2.4,0,0,1-1.49-.465l-.47.754a3.271,3.271,0,0,0,1.95.576c1.29,0,2.04-.6,2.04-1.451s-.59-1.19-1.57-1.33l-.47-.065c-.42-.056-.76-.139-.76-.437s.32-.521.86-.521a2.944,2.944,0,0,1,1.41.381Zm26.19-.465a1.322,1.322,0,0,0-1.19.651v-.539h-.97v4.446h.98v-2.493c0-.735.32-1.144.94-1.144a1.591,1.591,0,0,1,.61.111l.3-.93a2.053,2.053,0,0,0-.69-.121Zm-12.6,2.325a2.206,2.206,0,0,0,.16.915,2.231,2.231,0,0,0,.52.772,2.184,2.184,0,0,0,.79.5,2.318,2.318,0,0,0,.93.14,2.361,2.361,0,0,0,1.61-.53l-.47-.782a1.968,1.968,0,0,1-1.17.4,1.474,1.474,0,0,1-.95-.455,1.423,1.423,0,0,1,0-1.936,1.474,1.474,0,0,1,.95-.455,1.968,1.968,0,0,1,1.17.4l.47-.781a2.357,2.357,0,0,0-1.61-.531,2.317,2.317,0,0,0-.93.14,2.185,2.185,0,0,0-.79.5,2.231,2.231,0,0,0-.52.772,2.206,2.206,0,0,0-.16.915Zm9.16,0v-2.213h-.98v.539a1.712,1.712,0,0,0-.63-.494,1.692,1.692,0,0,0-.78-.157,2.364,2.364,0,0,0-1.66.681,2.3,2.3,0,0,0,0,3.289,2.364,2.364,0,0,0,1.66.681,1.68,1.68,0,0,0,.78-.158,1.709,1.709,0,0,0,.63-.493v.539h.98Zm-3.64,0a1.349,1.349,0,0,1,.26-.723,1.362,1.362,0,0,1,2.43.565,1.259,1.259,0,0,1-.09.765,1.31,1.31,0,0,1-.49.592,1.4,1.4,0,0,1-.75.224,1.35,1.35,0,0,1-.54-.105,1.274,1.274,0,0,1-.74-.776A1.257,1.257,0,0,1,1279.53,214.722Zm-11.8-2.325a2.358,2.358,0,0,0-1.65.7,2.289,2.289,0,0,0-.67,1.654,2.347,2.347,0,0,0,.71,1.635,2.381,2.381,0,0,0,1.68.658,2.736,2.736,0,0,0,1.86-.605l-.47-.716a2.148,2.148,0,0,1-1.3.465,1.245,1.245,0,0,1-1.35-1.088h3.34v-.372a2.127,2.127,0,0,0-2.14-2.326Zm0,.865a1.127,1.127,0,0,1,.43.075,1.245,1.245,0,0,1,.37.231,1.026,1.026,0,0,1,.24.353,1.214,1.214,0,0,1,.1.42h-2.35a1.116,1.116,0,0,1,.37-.78,1.18,1.18,0,0,1,.82-.3Zm24.49,1.47v-4.009h-.94v2.325a1.68,1.68,0,0,0-.62-.494,1.76,1.76,0,0,0-.79-.157,2.364,2.364,0,0,0-1.66.681,2.3,2.3,0,0,0,0,3.289,2.364,2.364,0,0,0,1.66.681,1.747,1.747,0,0,0,.79-.158,1.678,1.678,0,0,0,.62-.493v.539h.94Zm1.63,1.576a.429.429,0,0,1,.18.033.407.407,0,0,1,.15.093.652.652,0,0,1,.1.139.5.5,0,0,1,.03.172.494.494,0,0,1-.03.172.635.635,0,0,1-.1.14.407.407,0,0,1-.15.093.4.4,0,0,1-.18.037.5.5,0,0,1-.25-.074.522.522,0,0,1-.17-.2.494.494,0,0,1-.03-.172.5.5,0,0,1,.03-.172.644.644,0,0,1,.1-.139.405.405,0,0,1,.15-.093.458.458,0,0,1,.19-.033Zm0,.786a.333.333,0,0,0,.14-.028.361.361,0,0,0,.11-.074.337.337,0,0,0,.09-.233.333.333,0,0,0-.09-.232.347.347,0,0,0-.11-.075.333.333,0,0,0-.14-.027.337.337,0,0,0-.13.027.348.348,0,0,0-.11.075.344.344,0,0,0-.1.232.348.348,0,0,0,.1.233.329.329,0,0,0,.11.074.347.347,0,0,0,.15.028Zm.03-.553a.166.166,0,0,1,.12.037.111.111,0,0,1,.04.044.1.1,0,0,1,.01.054.073.073,0,0,1-.01.045c-.01.014-.01.027-.03.038a.136.136,0,0,1-.09.042l.13.154h-.11l-.12-.154h-.05v.154h-.08v-.41Zm-.1.079v.111h.1a.1.1,0,0,0,.06,0v-.083a.1.1,0,0,0-.06,0Zm-5.17-1.888a1.284,1.284,0,0,1,.27-.724,1.3,1.3,0,0,1,.62-.46,1.36,1.36,0,0,1,1.45.338,1.3,1.3,0,0,1,.35.687,1.26,1.26,0,0,1-.09.765,1.3,1.3,0,0,1-.49.592,1.393,1.393,0,0,1-1.29.12,1.273,1.273,0,0,1-.45-.312,1.342,1.342,0,0,1-.37-1.006Zm-33.01,0v-2.223h-.98v.539a1.68,1.68,0,0,0-.62-.494,1.76,1.76,0,0,0-.79-.157,2.363,2.363,0,0,0-1.66.681,2.3,2.3,0,0,0,0,3.289,2.363,2.363,0,0,0,1.66.681,1.747,1.747,0,0,0,.79-.158,1.678,1.678,0,0,0,.62-.493v.539h.98Zm-3.64,0a1.361,1.361,0,0,1,.89-1.184,1.382,1.382,0,0,1,.78-.046,1.332,1.332,0,0,1,.67.384,1.236,1.236,0,0,1,.35.687,1.335,1.335,0,0,1-.08.765,1.367,1.367,0,0,1-1.25.817,1.347,1.347,0,0,1-.54-.1,1.389,1.389,0,0,1-.46-.31,1.264,1.264,0,0,1-.29-.467,1.432,1.432,0,0,1-.08-.543Z" transform="translate(-1240.12 -175.047)" fill="#fff"/>
  <path id="Path_135" data-name="Path 135" d="M1274.9,178.627h-14.8v26.328h14.8Z" transform="translate(-1240.12 -175.047)" fill="#ff5f00"/>
  <path id="Path_136" data-name="Path 136" d="M1261.04,191.8a16.457,16.457,0,0,1,1.69-7.32,16.708,16.708,0,0,1,4.77-5.846,17.062,17.062,0,0,0-17.85-1.9,16.675,16.675,0,0,0,0,30.117,17.065,17.065,0,0,0,17.85-1.894,16.672,16.672,0,0,1-6.46-13.162Z" transform="translate(-1240.12 -175.047)" fill="#eb001b"/>
  <path id="Path_137" data-name="Path 137" d="M1294.88,191.794a16.567,16.567,0,0,1-2.58,8.883,16.812,16.812,0,0,1-6.95,6.176,17.062,17.062,0,0,1-17.85-1.9,16.826,16.826,0,0,0,4.76-5.846,16.514,16.514,0,0,0,0-14.636,16.808,16.808,0,0,0-4.76-5.846,17.065,17.065,0,0,1,17.85-1.9,16.812,16.812,0,0,1,6.95,6.176,16.57,16.57,0,0,1,2.58,8.883Z" transform="translate(-1240.12 -175.047)" fill="#f79e1b"/>
</svg>
