<svg xmlns="http://www.w3.org/2000/svg" xmlns:xlink="http://www.w3.org/1999/xlink" width="62" height="20" viewBox="0 0 62 20">
  <defs>
    <clipPath id="clip-path">
      <rect id="Rectangle_27" data-name="Rectangle 27" width="62" height="20" transform="translate(1154 186)" fill="#fff"/>
    </clipPath>
  </defs>
  <g id="Group_20" data-name="Group 20" transform="translate(-1154 -186)" clip-path="url(#clip-path)">
    <path id="Path_129" data-name="Path 129" d="M1180.87,205.712h-5.03l3.15-19.36h5.02Z" fill="#fff"/>
    <path id="Path_130" data-name="Path 130" d="M1199.07,186.824a12.41,12.41,0,0,0-4.5-.824c-4.96,0-8.45,2.636-8.47,6.4-.05,2.781,2.5,4.325,4.4,5.253,1.94.947,2.6,1.565,2.6,2.41-.02,1.3-1.57,1.9-3.02,1.9a10.015,10.015,0,0,1-4.71-1.03l-.66-.309-.7,4.346a15.347,15.347,0,0,0,5.6,1.03c5.27,0,8.7-2.6,8.74-6.612.02-2.2-1.32-3.893-4.22-5.272-1.75-.886-2.83-1.484-2.83-2.39.02-.824.91-1.668,2.9-1.668a8.576,8.576,0,0,1,3.74.741l.45.206Z" fill="#fff"/>
    <path id="Path_131" data-name="Path 131" d="M1205.75,198.853c.41-1.112,2-5.417,2-5.417-.02.042.42-1.132.67-1.853l.35,1.668s.95,4.634,1.15,5.6Zm6.2-12.5h-3.89a2.48,2.48,0,0,0-2.62,1.606l-7.46,17.754h5.27s.87-2.39,1.05-2.9h6.45c.15.679.6,2.9.6,2.9H1216Z" fill="#fff"/>
    <path id="Path_132" data-name="Path 132" d="M1171.65,186.352l-4.92,13.2-.54-2.678a14.838,14.838,0,0,0-6.94-8.115l4.5,16.931h5.32l7.89-19.34Z" fill="#fff"/>
    <path id="Path_133" data-name="Path 133" d="M1162.16,186.352h-8.08l-.08.391c6.3,1.606,10.48,5.479,12.19,10.134l-1.75-8.9A2.081,2.081,0,0,0,1162.16,186.352Z" fill="#faa61a"/>
  </g>
</svg>
