<svg xmlns="http://www.w3.org/2000/svg" xmlns:xlink="http://www.w3.org/1999/xlink" width="40" height="40" viewBox="0 0 40 40">
  <defs>
    <clipPath id="clip-path">
      <rect id="Rectangle_26" data-name="Rectangle 26" width="40" height="40" transform="translate(1094 174)" fill="#fff"/>
    </clipPath>
  </defs>
  <g id="Group_19" data-name="Group 19" transform="translate(-1094 -174)" clip-path="url(#clip-path)">
    <path id="Path_110" data-name="Path 110" d="M1129.26,210.676h-30.52a2.944,2.944,0,0,1-2.94-2.945V182.324a2.945,2.945,0,0,1,2.94-2.945h30.52a2.945,2.945,0,0,1,2.94,2.945v25.407A2.944,2.944,0,0,1,1129.26,210.676Z" fill="#fff"/>
    <path id="Path_111" data-name="Path 111" d="M1128.58,209.977h-29.16a2.812,2.812,0,0,1-2.81-2.813V182.89a2.813,2.813,0,0,1,2.81-2.814h29.16a2.813,2.813,0,0,1,2.81,2.814v24.274A2.812,2.812,0,0,1,1128.58,209.977Z" fill="#fff"/>
    <path id="Path_112" data-name="Path 112" d="M1130.23,187.6l-7.34-12.712a1.771,1.771,0,0,0-2.42-.648l-23.14,13.36Z" fill="#fff"/>
    <path id="Path_113" data-name="Path 113" d="M1095.8,197.829h36.4v-9.641a2.205,2.205,0,0,0-2.2-2.2h-32a2.205,2.205,0,0,0-2.2,2.2Z" fill="#fff"/>
    <path id="Path_114" data-name="Path 114" d="M1095.8,194.2v13.528a2.945,2.945,0,0,0,2.94,2.945h30.52a2.945,2.945,0,0,0,2.94-2.945V194.2a1.816,1.816,0,0,0-1.82-1.819h-32.76A1.816,1.816,0,0,0,1095.8,194.2Z" fill="#fff"/>
    <path id="Path_115" data-name="Path 115" d="M1126.71,187.225v23.451h2.55a2.944,2.944,0,0,0,2.94-2.944V192.716Z" fill="#fff"/>
    <path id="Path_116" data-name="Path 116" d="M1124.23,213.977l-25.56-2.968a3.243,3.243,0,0,1-2.87-3.227V182.1a1.083,1.083,0,0,0,.96,1.079l28.22,3.277a3.253,3.253,0,0,1,2.87,3.227V210.75A3.246,3.246,0,0,1,1124.23,213.977Z" fill="#fff"/>
    <path id="Path_117" data-name="Path 117" d="M1124.23,208.849l-25.56-2.968a3.244,3.244,0,0,1-2.87-3.227v5.13a3.243,3.243,0,0,0,2.87,3.226l25.56,2.968a3.246,3.246,0,0,0,3.62-3.227v-5.129A3.246,3.246,0,0,1,1124.23,208.849Z" fill="#fff"/>
    <path id="Path_118" data-name="Path 118" d="M1098.09,186.106a.67.67,0,0,1-.07,0l-1.16-.128a.588.588,0,1,1,.12-1.17l1.17.129a.588.588,0,0,1-.06,1.173Z" fill="#fff"/>
    <path id="Path_119" data-name="Path 119" d="M1122.12,212.039a.712.712,0,0,1-.08-.005l-2.27-.289a.588.588,0,1,1,.15-1.167l2.27.289a.588.588,0,0,1-.07,1.172Zm2.24-.291a.589.589,0,0,1-.26-1.121,2.339,2.339,0,0,0,1.24-1.279.585.585,0,0,1,.75-.362.6.6,0,0,1,.36.749,3.484,3.484,0,0,1-1.84,1.957A.632.632,0,0,1,1124.36,211.748Zm-6.79-.287a.549.549,0,0,1-.07-.005l-2.27-.289a.588.588,0,0,1,.14-1.167l2.28.289a.592.592,0,0,1,.51.658A.6.6,0,0,1,1117.57,211.461Zm-4.54-.578a.719.719,0,0,1-.08,0l-2.27-.289a.588.588,0,1,1,.15-1.167l2.27.289a.588.588,0,0,1-.07,1.172Zm-4.55-.578a.55.55,0,0,1-.07,0l-2.28-.289a.588.588,0,0,1,.15-1.167l2.28.289a.591.591,0,0,1,.51.658A.6.6,0,0,1,1108.48,210.3Zm-4.54-.578a.715.715,0,0,1-.08-.005l-2.27-.289a.588.588,0,1,1,.15-1.167l2.27.289a.588.588,0,0,1-.07,1.172Zm22.08-1.873a.584.584,0,0,1-.58-.588v-2.291a.585.585,0,1,1,1.17,0v2.291A.586.586,0,0,1,1126.02,207.854Zm0-4.582a.584.584,0,0,1-.58-.588v-2.291a.585.585,0,1,1,1.17,0v2.291A.586.586,0,0,1,1126.02,203.272Zm0-4.582a.584.584,0,0,1-.58-.588v-2.291a.585.585,0,1,1,1.17,0V198.1A.586.586,0,0,1,1126.02,198.69Zm0-4.582a.584.584,0,0,1-.58-.588v-2.291a.585.585,0,1,1,1.17,0v2.291A.587.587,0,0,1,1126.02,194.108Zm-.82-4.347a.578.578,0,0,1-.4-.162,2.894,2.894,0,0,0-1.71-.741l-.01,0a.588.588,0,1,1,.12-1.169h.01a4.085,4.085,0,0,1,2.4,1.057.59.59,0,0,1-.41,1.016Zm-4.34-1.152a.6.6,0,0,1-.06,0l-2.28-.251a.586.586,0,0,1-.52-.648.594.594,0,0,1,.65-.521l2.28.251a.588.588,0,0,1-.07,1.172Zm-4.55-.5c-.02,0-.04,0-.07,0l-2.27-.25a.588.588,0,0,1,.12-1.17l2.28.251a.588.588,0,0,1-.06,1.173Zm-4.56-.5a.405.405,0,0,1-.06,0l-2.28-.25a.588.588,0,1,1,.13-1.169l2.28.25a.588.588,0,0,1-.07,1.173Zm-4.55-.5-.07,0-2.27-.251a.588.588,0,1,1,.13-1.169l2.27.25a.588.588,0,0,1-.06,1.173Zm-4.56-.5c-.02,0-.04,0-.06,0l-2.28-.25a.589.589,0,0,1,.13-1.17l2.28.251a.588.588,0,0,1-.07,1.173Z" fill="#fff"/>
    <path id="Path_120" data-name="Path 120" d="M1099.39,209.149a.536.536,0,0,1-.08-.005l-1.17-.148a.588.588,0,1,1,.15-1.167l1.17.148a.588.588,0,0,1-.07,1.172Z" fill="#fff"/>
    <path id="Path_121" data-name="Path 121" d="M1121,178.379l-3.77,2.049a1.009,1.009,0,1,1-.96-1.776l3.76-2.048a1.011,1.011,0,0,1,.97,1.775Z" fill="#61db99"/>
    <path id="Path_122" data-name="Path 122" d="M1127.85,202.424l-3.74-3.736a2.878,2.878,0,0,0-5,1.95,2.887,2.887,0,0,0,.93,2.124l7.81,7.81v-8.148Z" fill="#fff"/>
    <path id="Path_123" data-name="Path 123" d="M1121.99,203.521a2.884,2.884,0,1,0-2.88-2.883A2.882,2.882,0,0,0,1121.99,203.521Z" fill="#fff"/>
    <path id="Path_124" data-name="Path 124" d="M1121.99,202.627a1.991,1.991,0,1,0-1.99-1.99A1.989,1.989,0,0,0,1121.99,202.627Z" fill="#fff"/>
    <path id="Path_125" data-name="Path 125" d="M1121.23,200.292a.412.412,0,0,0,0-.823.412.412,0,0,0,0,.823Z" fill="#fff"/>
    <path id="Path_126" data-name="Path 126" d="M1122.74,200.292a.412.412,0,1,0-.41-.411A.417.417,0,0,0,1122.74,200.292Z" fill="#fff"/>
    <path id="Path_127" data-name="Path 127" d="M1121.23,201.806a.412.412,0,0,0,0-.824.412.412,0,0,0,0,.824Z" fill="#fff"/>
    <path id="Path_128" data-name="Path 128" d="M1122.74,201.806a.412.412,0,1,0-.41-.412A.417.417,0,0,0,1122.74,201.806Z" fill="#fff"/>
  </g>
</svg>
